<svg width="18" height="18" viewBox="0 0 18 18" fill="none" xmlns="http://www.w3.org/2000/svg">
<path d="M14.3125 7.21422C13.7649 7.22881 13.2339 7.02586 12.8356 6.6498C12.4373 6.27373 12.2043 5.75519 12.1875 5.20769C12.1974 4.81679 12.3176 4.43666 12.5344 4.11119L13.8715 2.12166C13.9229 2.05325 13.9895 1.99774 14.066 1.9595C14.1426 1.92127 14.2269 1.90137 14.3125 1.90137C14.398 1.90137 14.4824 1.92127 14.5589 1.9595C14.6355 1.99774 14.702 2.05325 14.7534 2.12166L16.0736 4.08516C16.2992 4.41709 16.4255 4.80651 16.4375 5.20769C16.4207 5.75519 16.1876 6.27373 15.7894 6.6498C15.3911 7.02586 14.86 7.22881 14.3125 7.21422ZM14.3125 3.36957L13.4327 4.67803C13.3228 4.83367 13.2594 5.01737 13.25 5.20769C13.2808 5.46783 13.406 5.70761 13.6018 5.8816C13.7977 6.05559 14.0505 6.15169 14.3125 6.15169C14.5744 6.15169 14.8273 6.05559 15.0231 5.8816C15.219 5.70761 15.3441 5.46783 15.375 5.20769C15.3631 5.00706 15.2939 4.81404 15.1758 4.65147L14.3125 3.36957ZM12.9844 16.7767H5.01561C4.15979 16.7776 3.33417 16.4605 2.69901 15.8869C2.06385 15.3134 1.66448 14.5242 1.57841 13.6728C1.49235 12.8213 1.72575 11.9682 2.23328 11.2791C2.74082 10.59 3.48629 10.1141 4.32498 9.94378C4.55135 8.87161 5.13938 7.90982 5.99052 7.21963C6.84166 6.52943 7.90417 6.15277 8.99998 6.15277C10.0958 6.15277 11.1583 6.52943 12.0094 7.21963C12.8606 7.90982 13.4486 8.87161 13.675 9.94378C14.5137 10.1141 15.2591 10.59 15.7667 11.2791C16.2742 11.9682 16.5076 12.8213 16.4215 13.6728C16.3355 14.5242 15.9361 15.3134 15.301 15.8869C14.6658 16.4605 13.8402 16.7776 12.9844 16.7767ZM8.99998 7.21422C8.09297 7.21508 7.21754 7.54738 6.53843 8.14861C5.85933 8.74984 5.42336 9.57854 5.31257 10.4788L5.25945 10.9101L4.82648 10.9441C4.20983 10.9911 3.63543 11.2754 3.22413 11.7372C2.81283 12.199 2.59669 12.8024 2.62119 13.4204C2.64569 14.0383 2.90892 14.6227 3.3555 15.0505C3.80207 15.4783 4.39718 15.7162 5.01561 15.7142H12.9844C13.6028 15.7162 14.1979 15.4783 14.6445 15.0505C15.091 14.6227 15.3543 14.0383 15.3788 13.4204C15.4033 12.8024 15.1871 12.199 14.7758 11.7372C14.3645 11.2754 13.7901 10.9911 13.1735 10.9441L12.7405 10.9101L12.6879 10.4788C12.5769 9.57854 12.1408 8.7499 11.4616 8.1487C10.7825 7.5475 9.90702 7.21517 8.99998 7.21422Z" fill="#FF5252"/>
</svg>
