<svg width="20" height="13" viewBox="0 0 20 13" fill="none" xmlns="http://www.w3.org/2000/svg">
<path d="M4.12222 1.39146C3.35024 2.04148 2.73787 2.81318 2.32008 3.66251C1.90228 4.51183 1.68725 5.42214 1.68725 6.34146C1.68725 7.26077 1.90228 8.17108 2.32008 9.0204C2.73787 9.86973 3.35024 10.6414 4.12222 11.2915C4.23038 11.3858 4.29022 11.5121 4.28887 11.6432C4.28752 11.7743 4.22507 11.8997 4.11499 11.9924C4.0049 12.0851 3.85598 12.1377 3.7003 12.1388C3.54462 12.1399 3.39464 12.0895 3.28266 11.9985C2.40045 11.2556 1.70064 10.3736 1.22319 9.40302C0.745741 8.43239 0.5 7.39207 0.5 6.34146C0.5 5.29085 0.745741 4.25052 1.22319 3.27989C1.70064 2.30926 2.40045 1.42733 3.28266 0.684456C3.39464 0.593377 3.54462 0.542979 3.7003 0.544119C3.85598 0.545258 4.0049 0.597842 4.11499 0.690547C4.22507 0.783251 4.28752 0.908657 4.28887 1.03976C4.29022 1.17085 4.23038 1.29715 4.12222 1.39146ZM6.6421 3.51346C5.75161 4.26357 5.25136 5.2808 5.25136 6.34146C5.25136 7.40211 5.75161 8.41934 6.6421 9.16946C6.6973 9.21594 6.74109 9.27113 6.77097 9.33187C6.80084 9.39261 6.81622 9.45771 6.81622 9.52346C6.81622 9.5892 6.80084 9.6543 6.77097 9.71504C6.74109 9.77578 6.6973 9.83097 6.6421 9.87746C6.58689 9.92394 6.52135 9.96082 6.44923 9.98598C6.3771 10.0111 6.29979 10.0241 6.22172 10.0241C6.14365 10.0241 6.06634 10.0111 5.99422 9.98598C5.92209 9.96082 5.85655 9.92394 5.80135 9.87746C5.24983 9.41315 4.81234 8.86189 4.51385 8.25518C4.21537 7.64846 4.06174 6.99818 4.06174 6.34146C4.06174 5.68474 4.21537 5.03445 4.51385 4.42773C4.81234 3.82102 5.24983 3.26977 5.80135 2.80546C5.91284 2.71157 6.06405 2.65882 6.22172 2.65882C6.37939 2.65882 6.53061 2.71157 6.6421 2.80546C6.75359 2.89934 6.81622 3.02668 6.81622 3.15946C6.81622 3.29223 6.75359 3.41957 6.6421 3.51346ZM13.3586 2.80546C13.4138 2.75889 13.4793 2.72195 13.5514 2.69674C13.6235 2.67154 13.7009 2.65856 13.779 2.65856C13.8571 2.65856 13.9344 2.67154 14.0065 2.69674C14.0787 2.72195 14.1442 2.75889 14.1993 2.80546C14.7509 3.26977 15.1884 3.82102 15.4868 4.42773C15.7853 5.03445 15.939 5.68474 15.939 6.34146C15.939 6.99818 15.7853 7.64846 15.4868 8.25518C15.1884 8.86189 14.7509 9.41315 14.1993 9.87746C14.1441 9.92394 14.0786 9.96082 14.0065 9.98598C13.9343 10.0111 13.857 10.0241 13.779 10.0241C13.7009 10.0241 13.6236 10.0111 13.5515 9.98598C13.4793 9.96082 13.4138 9.92394 13.3586 9.87746C13.3034 9.83097 13.2596 9.77578 13.2297 9.71504C13.1998 9.6543 13.1845 9.5892 13.1845 9.52346C13.1845 9.45771 13.1998 9.39261 13.2297 9.33187C13.2596 9.27113 13.3034 9.21594 13.3586 9.16946C14.2491 8.41934 14.7493 7.40211 14.7493 6.34146C14.7493 5.2808 14.2491 4.26357 13.3586 3.51346C13.3033 3.46701 13.2594 3.41183 13.2295 3.35109C13.1996 3.29034 13.1842 3.22522 13.1842 3.15946C13.1842 3.09369 13.1996 3.02857 13.2295 2.96782C13.2594 2.90708 13.3033 2.8519 13.3586 2.80546ZM15.8785 0.685456C15.9898 0.59172 16.1408 0.539062 16.2983 0.539062C16.4557 0.539062 16.6067 0.59172 16.718 0.685456C18.4994 2.18572 19.5001 4.2204 19.5001 6.34196C19.5001 8.46351 18.4994 10.4982 16.718 11.9985C16.6061 12.0895 16.4561 12.1399 16.3004 12.1388C16.1447 12.1377 15.9958 12.0851 15.8857 11.9924C15.7756 11.8997 15.7132 11.7743 15.7118 11.6432C15.7105 11.5121 15.7703 11.3858 15.8785 11.2915C16.6504 10.6414 17.2628 9.86973 17.6806 9.0204C18.0984 8.17108 18.3134 7.26077 18.3134 6.34146C18.3134 5.42214 18.0984 4.51183 17.6806 3.66251C17.2628 2.81318 16.6504 2.04148 15.8785 1.39146C15.7672 1.29769 15.7046 1.17054 15.7046 1.03796C15.7046 0.905374 15.7672 0.778219 15.8785 0.684456V0.685456ZM12.3753 6.34146C12.3753 6.87189 12.1251 7.3806 11.6797 7.75567C11.2343 8.13074 10.6302 8.34146 10.0003 8.34146C9.37046 8.34146 8.76637 8.13074 8.32097 7.75567C7.87557 7.3806 7.62535 6.87189 7.62535 6.34146C7.62535 5.81102 7.87557 5.30232 8.32097 4.92724C8.76637 4.55217 9.37046 4.34146 10.0003 4.34146C10.6302 4.34146 11.2343 4.55217 11.6797 4.92724C12.1251 5.30232 12.3753 5.81102 12.3753 6.34146Z" fill="#FF6600"/>
</svg>
