<svg width="10" height="17" viewBox="0 0 10 17" fill="none" xmlns="http://www.w3.org/2000/svg">
<path d="M6.5 1.93887C6.5 1.49704 5.82842 1.13887 5 1.13887C4.17157 1.13887 3.5 1.49704 3.5 1.93887V11.6754C3.96917 11.587 4.47404 11.5389 5 11.5389C5.52595 11.5389 6.03083 11.587 6.5 11.6754V10.7389H5.75C5.33578 10.7389 5 10.5598 5 10.3389C5 10.118 5.33578 9.93887 5.75 9.93887H6.5V9.13887H5.75C5.33578 9.13887 5 8.95978 5 8.73887C5 8.51795 5.33578 8.33887 5.75 8.33887H6.5V7.53887H5.75C5.33578 7.53887 5 7.35978 5 7.13887C5 6.91795 5.33578 6.73887 5.75 6.73887H6.5V5.93887H5.75C5.33578 5.93887 5 5.75978 5 5.53887C5 5.31795 5.33578 5.13887 5.75 5.13887H6.5V4.33887H5.75C5.33578 4.33887 5 4.15978 5 3.93887C5 3.71795 5.33578 3.53887 5.75 3.53887H6.5V2.73887H5.75C5.33578 2.73887 5 2.55978 5 2.33887C5 2.11795 5.33578 1.93887 5.75 1.93887H6.5ZM2 12.15V1.93887C2 1.05521 3.34314 0.338867 5 0.338867C6.65685 0.338867 8 1.05521 8 1.93887V12.15C8.92062 12.5894 9.49999 13.2281 9.49999 13.9389C9.49999 15.2644 7.48528 16.3389 5 16.3389C2.51472 16.3389 0.5 15.2644 0.5 13.9389C0.5 13.2281 1.07938 12.5894 2 12.15ZM3.18692 12.664C2.46569 12.9562 2 13.4185 2 13.9389C2 14.8225 3.34314 15.5389 5 15.5389C6.65685 15.5389 8 14.8225 8 13.9389C8 13.4185 7.5343 12.9562 6.81308 12.664C6.80426 12.6606 6.79559 12.6572 6.78707 12.6536C6.28791 12.4559 5.66957 12.3389 5 12.3389C4.33043 12.3389 3.71209 12.4559 3.21292 12.6536C3.2044 12.6572 3.19573 12.6606 3.18692 12.664ZM5 14.7389C4.17157 14.7389 3.5 14.3807 3.5 13.9389C3.5 13.497 4.17157 13.1389 5 13.1389C5.82842 13.1389 6.5 13.497 6.5 13.9389C6.5 14.3807 5.82842 14.7389 5 14.7389Z" fill="#FF6600"/>
</svg>
