<svg width="15" height="17" viewBox="0 0 15 17" fill="none" xmlns="http://www.w3.org/2000/svg">
<path d="M7.50012 16.3388C8.03056 16.3388 8.53926 16.1281 8.91434 15.753C9.28941 15.3779 9.50012 14.8692 9.50012 14.3388H5.50012C5.50012 14.8692 5.71084 15.3779 6.08591 15.753C6.46098 16.1281 6.96969 16.3388 7.50012 16.3388ZM7.50012 2.25677L6.70312 2.41777C5.79891 2.60162 4.98606 3.09242 4.40232 3.80702C3.81858 4.52162 3.49984 5.41605 3.50012 6.33877C3.50012 6.96677 3.36612 8.53576 3.04112 10.0808C2.88112 10.8478 2.66512 11.6468 2.37812 12.3388H12.6221C12.3351 11.6468 12.1201 10.8488 11.9591 10.0808C11.6341 8.53576 11.5001 6.96677 11.5001 6.33877C11.5002 5.41622 11.1813 4.52202 10.5976 3.80763C10.0139 3.09324 9.20117 2.60258 8.29712 2.41877L7.50012 2.25677ZM13.7201 12.3388C13.9431 12.7858 14.2011 13.1398 14.5001 13.3388H0.500122C0.799122 13.1398 1.05712 12.7858 1.28012 12.3388C2.18012 10.5388 2.50012 7.21877 2.50012 6.33877C2.50012 3.91877 4.22012 1.89877 6.50512 1.43777C6.49117 1.29872 6.50651 1.15829 6.55016 1.02554C6.59381 0.892786 6.66479 0.770655 6.75854 0.667024C6.85229 0.563392 6.96672 0.48056 7.09445 0.42387C7.22218 0.36718 7.36038 0.337891 7.50012 0.337891C7.63987 0.337891 7.77806 0.36718 7.90579 0.42387C8.03352 0.48056 8.14795 0.563392 8.2417 0.667024C8.33545 0.770655 8.40644 0.892786 8.45009 1.02554C8.49374 1.15829 8.50908 1.29872 8.49512 1.43777C9.62558 1.66732 10.6419 2.28068 11.3718 3.1739C12.1017 4.06712 12.5004 5.18524 12.5001 6.33877C12.5001 7.21877 12.8201 10.5388 13.7201 12.3388Z" fill="#F5F5F5"/>
</svg>
