<svg width="18" height="18" viewBox="0 0 18 18" fill="none" xmlns="http://www.w3.org/2000/svg">
<path fill-rule="evenodd" clip-rule="evenodd" d="M8.46875 3.49512V1.90137H9.53125V3.49512H8.46875ZM11.4618 4.01245L12.2587 2.63223L13.1789 3.16348L12.382 4.5437L11.4618 4.01245ZM9 13.0576C11.0538 13.0576 12.7188 11.3927 12.7188 9.33887C12.7188 7.28506 11.0538 5.62012 9 5.62012C6.94619 5.62012 5.28125 7.28506 5.28125 9.33887C5.28125 11.3927 6.94619 13.0576 9 13.0576ZM9 14.1201C11.6406 14.1201 13.7812 11.9795 13.7812 9.33887C13.7812 6.69826 11.6406 4.55762 9 4.55762C6.35939 4.55762 4.21875 6.69826 4.21875 9.33887C4.21875 11.9795 6.35939 14.1201 9 14.1201ZM14.8438 8.80762H16.4375V9.87012H14.8438V8.80762ZM15.1754 5.16004L13.7952 5.95692L14.3264 6.87707L15.7067 6.08019L15.1754 5.16004ZM4.82117 3.16348L5.61805 4.5437L6.5382 4.01245L5.74133 2.63223L4.82117 3.16348ZM3.67355 6.87707L2.29333 6.08019L2.82458 5.16004L4.2048 5.95692L3.67355 6.87707ZM8.46875 15.1826V16.7764H9.53125V15.1826H8.46875ZM3.15625 8.80762H1.5625V9.87012H3.15625V8.80762ZM2.2933 12.5975L3.67352 11.8007L4.20477 12.7208L2.82455 13.5177L2.2933 12.5975ZM5.61808 14.1341L4.82121 15.5144L5.74136 16.0456L6.53823 14.6654L5.61808 14.1341ZM12.2587 16.0456L11.4618 14.6654L12.382 14.1341L13.1788 15.5144L12.2587 16.0456ZM13.7952 12.7208L15.1755 13.5177L15.7067 12.5975L14.3265 11.8007L13.7952 12.7208Z" fill="#FF6600"/>
</svg>
